<svg width="34" height="34" viewBox="0 0 34 34" fill="none" xmlns="http://www.w3.org/2000/svg">
<path d="M4.25 8.85417C4.25 7.63307 4.73508 6.46198 5.59853 5.59853C6.46198 4.73508 7.63307 4.25 8.85417 4.25H25.1458C26.3669 4.25 27.538 4.73508 28.4015 5.59853C29.2649 6.46198 29.75 7.63307 29.75 8.85417V25.1458C29.75 26.3669 29.2649 27.538 28.4015 28.4015C27.538 29.2649 26.3669 29.75 25.1458 29.75H8.85417C7.63307 29.75 6.46198 29.2649 5.59853 28.4015C4.73508 27.538 4.25 26.3669 4.25 25.1458V8.85417ZM18.0625 10.9792C18.0625 10.6974 17.9506 10.4271 17.7513 10.2279C17.552 10.0286 17.2818 9.91667 17 9.91667C16.7182 9.91667 16.448 10.0286 16.2487 10.2279C16.0494 10.4271 15.9375 10.6974 15.9375 10.9792V15.9375H10.9792C10.6974 15.9375 10.4271 16.0494 10.2279 16.2487C10.0286 16.448 9.91667 16.7182 9.91667 17C9.91667 17.2818 10.0286 17.552 10.2279 17.7513C10.4271 17.9506 10.6974 18.0625 10.9792 18.0625H15.9375V23.0208C15.9375 23.3026 16.0494 23.5729 16.2487 23.7721C16.448 23.9714 16.7182 24.0833 17 24.0833C17.2818 24.0833 17.552 23.9714 17.7513 23.7721C17.9506 23.5729 18.0625 23.3026 18.0625 23.0208V18.0625H23.0208C23.3026 18.0625 23.5729 17.9506 23.7721 17.7513C23.9714 17.552 24.0833 17.2818 24.0833 17C24.0833 16.7182 23.9714 16.448 23.7721 16.2487C23.5729 16.0494 23.3026 15.9375 23.0208 15.9375H18.0625V10.9792Z" fill="#00682C"/>
</svg>
